HIERARCHY
ROOT RootJoint
{
    OFFSET   0.000000   0.000000   0.000000
    CHANNELS 6 Xposition Yposition Zposition Xrotation Yrotation Zrotation
    JOINT lHip
    {
        OFFSET   0.100000  -0.051395   0.000000
        CHANNELS 3 Xrotation Yrotation Zrotation
        JOINT lKnee
        {
            OFFSET   0.000000  -0.410000   0.000000
            CHANNELS 3 Xrotation Yrotation Zrotation
            JOINT lAnkle
            {
                OFFSET   0.000000  -0.390000   0.000000
                CHANNELS 3 Xrotation Yrotation Zrotation
                JOINT lToeJoint
                {
                    OFFSET   0.000000  -0.050000   0.130000
                    CHANNELS 3 Xrotation Yrotation Zrotation
                    End Site
                    {
                        OFFSET   0.010000   0.002000   0.060000
                    }
                }
            }
        }
    }
    JOINT rHip
    {
        OFFSET  -0.100000  -0.051395   0.000000
        CHANNELS 3 Xrotation Yrotation Zrotation
        JOINT rKnee
        {
            OFFSET   0.000000  -0.410000   0.000000
            CHANNELS 3 Xrotation Yrotation Zrotation
            JOINT rAnkle
            {
                OFFSET   0.000000  -0.390000   0.000000
                CHANNELS 3 Xrotation Yrotation Zrotation
                JOINT rToeJoint
                {
                    OFFSET   0.000000  -0.050000   0.130000
                    CHANNELS 3 Xrotation Yrotation Zrotation
                    End Site
                    {
                        OFFSET  -0.010000   0.002000   0.060000
                    }
                }
            }
        }
    }
    JOINT pelvis_lowerback
    {
        OFFSET   0.000000   0.093605   0.000000
        CHANNELS 3 Xrotation Yrotation Zrotation
        JOINT lowerback_torso
        {
            OFFSET   0.000000   0.100000   0.000000
            CHANNELS 3 Xrotation Yrotation Zrotation
            JOINT torso_head
            {
                OFFSET   0.000000   0.282350   0.000000
                CHANNELS 3 Xrotation Yrotation Zrotation
                End Site
                {
                    OFFSET   0.000000   0.192650   0.000000
                }
            }
            JOINT lTorso_Clavicle
            {
                OFFSET   0.001000   0.157500   0.000000
                CHANNELS 3 Xrotation Yrotation Zrotation
                JOINT lShoulder
                {
                    OFFSET   0.117647   0.000000   0.000000
                    CHANNELS 3 Xrotation Yrotation Zrotation
                    JOINT lElbow
                    {
                        OFFSET   0.245000   0.000000   0.000000
                        CHANNELS 3 Xrotation Yrotation Zrotation
                        JOINT lWrist
                        {
                            OFFSET   0.240000   0.000000   0.000000
                            CHANNELS 3 Xrotation Yrotation Zrotation
                            End Site
                            {
                                OFFSET   0.116353  -0.002500   0.000000
                            }
                        }
                    }
                }
            }
            JOINT rTorso_Clavicle
            {
                OFFSET  -0.001000   0.157500   0.000000
                CHANNELS 3 Xrotation Yrotation Zrotation
                JOINT rShoulder
                {
                    OFFSET  -0.117647   0.000000   0.000000
                    CHANNELS 3 Xrotation Yrotation Zrotation
                    JOINT rElbow
                    {
                        OFFSET  -0.245000   0.000000   0.000000
                        CHANNELS 3 Xrotation Yrotation Zrotation
                        JOINT rWrist
                        {
                            OFFSET  -0.240000   0.000000   0.000000
                            CHANNELS 3 Xrotation Yrotation Zrotation
                            End Site
                            {
                                OFFSET  -0.116353  -0.002500   0.000000
                            }
                        }
                    }
                }
            }
        }
    }
}
MOTION
Frames: 7
Frame Time:   0.016667
 -1.112114   0.862746   2.570196   5.320381 -17.892908  -8.122335 -38.510192  11.088730   2.873688  60.137221 -10.842340   2.446776  -4.286418  -9.071104  -2.375180   0.000002   0.000014  -0.000001  -4.423450 -20.886277   2.801613  18.921138  -1.759438  -5.251360  -3.144625  -4.195696  18.251085   0.000007   0.000013  -0.000001   1.848316  -0.382771   2.687810   7.427857  -1.300644  10.824292  10.580797  27.889403 -16.532400   0.042064  -2.239175 -16.771526  20.006732 -32.045803 -43.547695   1.250480 -35.577657  10.569802  -0.937323   0.079369  -0.481255  -1.040196   1.067927  17.157205  29.089426  22.576227  37.881059  -0.482632  20.909725  -5.538986   4.686948   1.653706  -1.466365
 -1.121994   0.861308   2.580681   5.291798 -15.076003  -8.809610 -39.423790  12.379387   3.111222  55.372790  -8.777446   1.650215  -5.324223  -7.586471  -1.763243   0.000000   0.000007   0.000001  -2.062963 -22.608601   4.164741  18.135882  -2.322627  -5.368815  -2.995861  -4.682535  18.715416   0.000004   0.000011  -0.000002   1.823840  -0.313600   2.758280   7.309864  -1.028127  11.099209  10.618389  28.038682 -16.527165   0.043377  -2.267745 -16.534078  19.482715 -30.771640 -43.677443   1.215180 -34.849620  10.797093  -0.459719  -0.086384   0.259706  -1.034483   0.965401  17.148695  29.252524  22.183459  37.179748  -0.479029  21.370535  -5.932961   5.544672   1.822874  -2.415564
 -1.131747   0.859936   2.591328   5.290766 -12.301040  -9.446424 -40.230091  13.845401   3.307032  50.519552  -6.461679   1.033867  -6.326002  -5.976727  -1.056508  -0.000002   0.000002   0.000002   0.375552 -24.272125   5.592400  17.295224  -2.853251  -5.498949  -2.807783  -5.143912  19.183513   0.000001   0.000009  -0.000002   1.799112  -0.247949   2.817920   7.191022  -0.770812  11.331544  10.640760  28.201602 -16.502184   0.044956  -2.291438 -16.301989  18.919644 -29.478375 -43.840270   1.176506 -34.091388  11.026282  -0.030700  -0.234467   1.033869  -1.028879   0.869649  17.136702  29.343075  21.781036  36.520902  -0.473128  21.814074  -6.309769   6.418037   1.970798  -3.366250
 -1.140799   0.858924   2.602862   5.274461  -9.757421  -9.852740 -40.391752  16.295787   3.163060  44.939213  -3.040016   0.692989  -7.090334  -3.630176   0.060068   0.000000   0.000012   0.000001   2.907331 -25.856768   6.951811  16.156649  -3.211315  -5.663528  -2.422412  -5.469570  19.665598   0.000000   0.000007  -0.000001   1.773432  -0.201499   2.817869   7.074110  -0.594214  11.327145  10.578783  28.439465 -16.367738   0.047390  -2.288329 -16.099398  18.103595 -28.081947 -44.245249   1.132946 -33.166565  11.272152   0.121165  -0.315362   1.983844  -1.023818   0.811160  17.105510  29.061637  21.335889  36.079032  -0.470927  22.162780  -6.586024   7.364291   2.065160  -4.313248
 -1.149570   0.857723   2.614745   5.262563  -7.286732 -10.234377 -40.378462  19.145848   2.942035  39.238877   0.525425   0.764807  -7.801895  -1.196058   1.226238   0.000002   0.000021   0.000000   5.463493 -27.309806   8.386149  15.057638  -3.536129  -5.864970  -1.988908  -5.772242  20.191218   0.000000   0.000006  -0.000001   1.744729  -0.160985   2.809121   6.947134  -0.442673  11.288566  10.493559  28.683288 -16.185713   0.049733  -2.282661 -15.913222  17.270204 -26.661089 -44.678407   1.085087 -32.188883  11.511522   0.168039  -0.368954   2.986051  -1.019131   0.761135  17.073203  28.674040  20.871930  35.706155  -0.469432  22.481275  -6.822984   8.272869   2.132063  -5.240081
 -1.157491   0.855128   2.627652   5.244255  -4.986193 -10.720888 -40.079978  23.206705   2.636984  33.473195   3.694718   1.446362  -8.258575   1.043618   2.146464  -0.000000   0.000019   0.000001   7.784761 -28.312220   9.946226  14.478312  -3.864246  -6.209401  -1.495945  -6.096230  20.933789  -0.000001   0.000005  -0.000001   1.700272  -0.133960   2.812168   6.761629  -0.348971  11.297678  10.368337  28.885455 -15.854352   0.050910  -2.289752 -15.787814  16.504308 -25.231808 -45.137402   1.035041 -31.086446  11.705266  -0.089962  -0.347230   4.099824  -1.015829   0.720409  17.053949  28.082455  20.337145  35.502225  -0.473501  22.728453  -6.942296   8.896697   2.161773  -6.054811
 -1.165257   0.852279   2.640745   5.241600  -2.716502 -11.224745 -39.694386  27.485873   2.279331  27.632503   6.709116   2.491453  -8.695357   3.243514   3.034520  -0.000002   0.000015   0.000002  10.099866 -29.186800  11.569907  13.991497  -4.190472  -6.581872  -0.988079  -6.418164  21.718638  -0.000002   0.000003  -0.000002   1.652948  -0.109391   2.817377   6.565449  -0.265851  11.315686  10.234442  29.079399 -15.494830   0.051894  -2.299161 -15.673455  15.768008 -23.796631 -45.580137   0.981695 -29.961441  11.889957  -0.404085  -0.317633   5.234037  -1.012786   0.681372  17.037071  27.454392  19.790902  35.323913  -0.478339  22.962671  -7.040295   9.468913   2.178947  -6.849251
